<?xml version="1.0" standalone="no"?>
<!DOCTYPE svg PUBLIC "-//W3C//DTD SVG 20010904//EN"
 "http://www.w3.org/TR/2001/REC-SVG-20010904/DTD/svg10.dtd">
<svg version="1.0" xmlns="http://www.w3.org/2000/svg"
 width="48.000000pt" height="48.000000pt" viewBox="0 0 1440.000000 1440.000000"
 preserveAspectRatio="xMidYMid meet">
<metadata>
Created by potrace 1.10, written by Peter Selinger 2001-2011
</metadata>
<g transform="translate(0.000000,1440.000000) scale(0.100000,-0.100000)"
fill="#000000" stroke="none">
<path d="M6325 13799 c-120 -26 -214 -38 -307 -39 -43 0 -113 -9 -160 -21
-102 -25 -138 -33 -253 -54 -49 -9 -112 -23 -140 -30 -27 -7 -75 -18 -105 -25
-106 -23 -412 -126 -575 -192 -84 -34 -253 -111 -330 -150 -22 -12 -62 -32
-89 -45 -26 -13 -80 -43 -120 -67 -39 -23 -98 -57 -131 -75 -86 -48 -379 -245
-525 -354 -54 -40 -150 -120 -200 -165 -14 -13 -59 -50 -100 -82 -110 -84
-460 -446 -567 -585 -51 -66 -112 -145 -136 -175 -42 -53 -203 -305 -247 -385
-24 -46 -38 -70 -62 -105 -132 -203 -357 -782 -443 -1145 -9 -38 -23 -90 -30
-115 -7 -25 -20 -88 -29 -140 -10 -52 -23 -131 -31 -175 -19 -103 -45 -357
-45 -430 0 -31 -6 -113 -14 -183 -39 -347 -43 -430 -26 -573 15 -125 38 -317
55 -469 9 -74 22 -162 30 -195 8 -33 24 -105 35 -159 11 -55 23 -102 25 -106
2 -4 15 -49 29 -101 73 -277 179 -579 296 -839 21 -47 48 -110 61 -140 68
-162 303 -611 429 -820 15 -25 53 -89 86 -143 32 -54 66 -108 74 -121 8 -13
28 -45 44 -72 53 -87 139 -217 211 -316 38 -53 86 -119 105 -148 19 -28 72
-99 118 -158 45 -59 96 -125 113 -147 57 -77 292 -370 348 -436 31 -36 75 -88
97 -115 192 -229 276 -324 469 -534 39 -41 116 -127 172 -190 115 -130 548
-569 758 -770 77 -74 183 -175 235 -225 52 -50 138 -129 190 -175 52 -47 142
-130 200 -185 91 -86 166 -154 330 -299 19 -17 62 -53 95 -81 33 -27 121 -105
196 -172 75 -66 150 -128 167 -137 17 -9 51 -16 76 -16 43 0 52 5 153 92 60
50 153 132 209 182 55 50 129 116 165 146 135 116 475 426 639 584 64 61 190
181 280 267 299 284 804 806 1075 1114 39 43 91 102 116 130 25 27 89 102 142
165 53 63 122 144 153 180 31 36 108 130 172 210 63 80 128 161 144 180 49 60
181 230 218 280 141 194 230 322 395 575 43 66 95 145 116 176 21 31 49 79 64
105 14 27 30 56 36 64 33 53 174 308 234 425 39 77 77 149 83 160 63 116 166
348 280 630 28 70 132 382 132 398 0 6 11 39 25 72 13 33 27 80 31 105 3 25
19 90 34 145 44 156 68 270 85 395 8 63 24 180 35 260 39 281 34 644 -14 990
-8 58 -20 152 -26 210 -16 146 -56 379 -81 475 -12 44 -25 102 -30 128 -4 26
-11 58 -14 70 -26 95 -124 411 -146 472 -6 17 -22 63 -35 103 -25 75 -38 105
-153 345 -59 124 -148 280 -279 490 -35 55 -135 193 -267 367 -191 250 -552
599 -844 813 -94 68 -140 102 -326 233 -82 58 -180 119 -295 182 -36 20 -87
48 -115 64 -51 28 -306 155 -380 189 -126 56 -263 111 -308 124 -29 8 -77 23
-107 34 -108 39 -258 79 -430 115 -96 20 -233 50 -305 66 -92 20 -170 30 -265
34 -96 4 -155 12 -205 27 -64 19 -98 22 -375 24 -273 3 -314 2 -395 -16z
m-405 -3513 c268 -39 470 -134 703 -335 58 -50 112 -91 120 -91 7 0 53 36 102
81 97 87 146 123 215 162 130 71 161 86 225 112 99 39 154 53 279 70 268 36
530 -2 747 -109 474 -235 768 -739 719 -1234 -41 -427 -215 -776 -649 -1302
-96 -116 -475 -505 -599 -614 -37 -32 -132 -120 -212 -196 -226 -212 -269
-253 -515 -476 -285 -259 -291 -264 -321 -264 -16 0 -57 32 -137 108 -62 59
-149 138 -193 177 -128 113 -251 227 -464 429 -47 45 -132 124 -190 176 -233
209 -589 573 -714 730 -208 260 -318 426 -411 615 -160 329 -213 606 -170 893
40 266 162 499 370 707 140 140 264 223 432 290 188 76 441 103 663 71z"/>
</g>
</svg>
