<?xml version="1.0" standalone="no"?>
<!DOCTYPE svg PUBLIC "-//W3C//DTD SVG 20010904//EN"
 "http://www.w3.org/TR/2001/REC-SVG-20010904/DTD/svg10.dtd">
<svg version="1.0" xmlns="http://www.w3.org/2000/svg"
 width="480.000000pt" height="480.000000pt" viewBox="0 0 480.000000 480.000000"
 preserveAspectRatio="xMidYMid meet">
<metadata>
Created by potrace 1.10, written by Peter Selinger 2001-2011
</metadata>
<g transform="translate(0.000000,480.000000) scale(0.050000,-0.050000)"
fill="#000000" stroke="none">
<path d="M4236 9210 c-7 -8 -83 -21 -170 -29 -1176 -116 -2288 -953 -2706
-2036 -139 -361 -183 -576 -239 -1169 -93 -988 526 -2317 1660 -3566 562 -620
1593 -1590 1689 -1590 76 1 902 760 1413 1300 1786 1886 2291 3333 1730 4950
-345 992 -1312 1822 -2393 2054 -317 68 -947 123 -984 86z m642 -280 c1096
-156 1992 -778 2434 -1690 323 -666 370 -1710 111 -2460 -351 -1015 -1336
-2290 -2678 -3465 -288 -253 -265 -248 -449 -91 -1420 1213 -2469 2565 -2805
3614 -207 646 -203 1449 11 2092 438 1318 1934 2205 3376 2000z"/>
<path d="M3573 7055 c5 -8 -5 -9 -23 -2 -122 46 -568 -327 -684 -573 -217
-458 -80 -959 422 -1544 132 -154 883 -871 1013 -967 38 -28 67 -57 65 -65 -6
-23 80 -63 134 -63 53 0 140 40 134 61 -2 7 41 49 96 92 296 235 965 901 1133
1126 488 656 493 1238 14 1690 -139 131 -372 264 -427 243 -18 -7 -28 -6 -23
2 15 24 -326 28 -447 6 -60 -11 -194 -62 -296 -114 l-187 -93 -154 82 c-214
114 -351 147 -586 140 -106 -3 -189 -13 -184 -21z m408 -195 c145 -28 304
-104 421 -202 l98 -81 85 72 c708 607 1703 -98 1375 -974 -128 -343 -430 -689
-1269 -1452 -215 -196 -182 -193 -357 -26 -79 75 -301 285 -494 467 -561 529
-802 869 -860 1218 -98 579 423 1087 1001 978z"/>
</g>
</svg>
