<?xml version="1.0" standalone="no"?>
<!DOCTYPE svg PUBLIC "-//W3C//DTD SVG 20010904//EN"
 "http://www.w3.org/TR/2001/REC-SVG-20010904/DTD/svg10.dtd">
<svg version="1.0" xmlns="http://www.w3.org/2000/svg"
 width="300.000000pt" height="300.000000pt" viewBox="0 0 300.000000 300.000000"
 preserveAspectRatio="xMidYMid meet">
<metadata>
Created by potrace 1.10, written by Peter Selinger 2001-2011
</metadata>
<g transform="translate(0.000000,300.000000) scale(0.100000,-0.100000)"
fill="#000000" stroke="none">
<path d="M1340 2861 c-258 -39 -468 -145 -658 -333 -190 -189 -284 -413 -307
-733 -27 -374 194 -819 635 -1280 154 -161 460 -445 480 -445 15 0 195 163
353 318 415 410 638 742 734 1095 25 92 28 118 28 257 -1 169 -15 257 -64 403
-45 131 -85 202 -183 323 -147 180 -380 322 -616 375 -98 22 -316 32 -402 20z
m360 -46 c221 -46 402 -140 564 -295 215 -205 308 -441 310 -780 0 -150 -2
-174 -26 -260 -69 -242 -185 -451 -396 -715 -158 -198 -632 -661 -667 -653
-23 5 -244 210 -411 380 -361 369 -555 671 -641 997 -22 82 -26 118 -26 246 0
339 100 589 316 792 270 252 634 359 977 288z"/>
<path d="M1153 2096 c-153 -73 -225 -235 -174 -389 38 -115 118 -218 301 -391
221 -210 212 -205 265 -161 73 61 314 294 345 334 103 131 150 233 150 327 0
109 -85 231 -197 281 -99 43 -220 25 -325 -50 -14 -9 -22 -9 -35 0 -68 48
-120 67 -198 70 -69 4 -87 1 -132 -21z m244 -29 c18 -10 48 -31 68 -48 l35
-31 41 36 c58 49 125 70 210 64 157 -12 271 -145 256 -302 -14 -148 -90 -251
-390 -530 l-117 -109 -123 113 c-282 260 -372 380 -384 520 -12 131 63 251
184 296 50 19 177 13 220 -9z"/>
</g>
</svg>
