<?xml version="1.0" standalone="no"?>
<!DOCTYPE svg PUBLIC "-//W3C//DTD SVG 20010904//EN"
 "http://www.w3.org/TR/2001/REC-SVG-20010904/DTD/svg10.dtd">
<svg version="1.0" xmlns="http://www.w3.org/2000/svg"
 width="900.000000pt" height="900.000000pt" viewBox="0 0 900.000000 900.000000"
 preserveAspectRatio="xMidYMid meet">
<metadata>
Created by potrace 1.10, written by Peter Selinger 2001-2011
</metadata>
<g transform="translate(0.000000,900.000000) scale(0.100000,-0.100000)"
fill="#000000" stroke="none">
<path d="M1143 6893 c-13 -15 -23 -39 -23 -57 0 -32 54 -197 91 -276 111 -239
129 -279 129 -293 0 -7 4 -17 9 -23 4 -5 34 -70 66 -144 89 -206 543 -1128
774 -1570 39 -74 73 -142 77 -150 3 -8 10 -23 15 -33 6 -10 18 -35 28 -55 24
-50 62 -123 139 -272 88 -170 392 -768 409 -805 8 -16 19 -39 25 -50 7 -11 31
-58 56 -105 24 -47 59 -110 78 -141 19 -31 34 -60 34 -65 0 -4 6 -15 14 -23
23 -27 76 -129 76 -146 0 -17 72 -93 115 -121 14 -9 25 -22 25 -28 0 -12 58
-76 94 -105 10 -7 49 -17 86 -21 38 -4 89 -18 114 -30 51 -24 76 -21 76 9 0
12 -21 31 -62 56 -55 32 -72 38 -130 39 -59 1 -70 4 -97 30 -17 17 -31 35 -31
41 0 10 90 65 106 65 3 0 3 -9 -1 -20 -7 -22 30 -80 52 -80 14 0 8 26 -12 50
-33 39 -28 75 24 184 47 100 49 107 42 161 -9 63 -11 60 64 107 28 18 67 49
87 70 25 25 43 35 54 31 13 -5 15 -2 10 14 -4 13 1 34 15 57 24 41 23 40 51
25 18 -9 20 -9 15 4 -4 11 3 19 25 26 32 11 178 152 178 172 0 23 91 160 127
192 59 52 112 110 119 129 3 10 17 20 32 23 60 13 195 50 275 76 33 11 68 17
82 13 15 -4 34 0 48 9 12 8 42 19 67 25 25 6 61 15 80 20 37 10 122 58 181
103 48 37 76 43 145 28 33 -6 71 -13 85 -14 14 -1 31 -5 37 -9 28 -17 7 -26
-61 -26 -39 0 -88 -5 -107 -11 -19 -5 -55 -14 -80 -19 -43 -8 -113 -30 -155
-50 -11 -5 -30 -12 -42 -15 -13 -4 -23 -11 -23 -16 0 -5 -6 -9 -12 -9 -7 -1
-31 -9 -53 -20 -22 -11 -45 -19 -51 -20 -12 0 -101 -80 -210 -188 -81 -80
-163 -197 -224 -319 -47 -96 -90 -201 -90 -222 0 -9 -9 -33 -20 -54 -11 -20
-20 -50 -20 -67 0 -19 -5 -29 -12 -27 -10 1 -12 -17 -11 -73 2 -54 0 -69 -7
-52 -9 21 -40 31 -40 13 0 -6 -28 -39 -63 -74 -105 -108 -175 -113 -259 -16
-56 65 -99 86 -142 69 -38 -14 -30 -40 20 -65 23 -11 59 -37 80 -58 48 -48 77
-63 135 -72 31 -5 57 -2 82 8 43 19 123 90 143 129 16 31 34 37 34 12 0 -48
-84 -154 -182 -229 -125 -96 -145 -120 -150 -183 -6 -65 -24 -86 -96 -109 -78
-25 -333 -24 -386 1 -52 24 -61 91 -17 123 9 6 13 15 9 19 -20 20 -73 -69 -61
-103 3 -10 17 -33 30 -51 14 -18 22 -36 18 -40 -8 -9 -425 -9 -425 0 0 4 4 9
9 13 5 3 24 35 42 71 40 82 34 121 -24 167 -33 27 -47 32 -120 37 -103 7 -133
26 -110 71 8 16 12 33 9 37 -8 13 40 32 79 32 18 0 45 4 58 9 14 5 84 13 156
17 72 4 131 10 131 14 0 4 -6 13 -14 20 -8 6 -16 21 -18 32 -2 15 -16 26 -45
37 -37 13 -58 13 -145 4 -57 -7 -121 -19 -143 -28 -164 -65 -223 -161 -154
-249 37 -46 76 -61 184 -66 98 -5 100 -5 109 -33 7 -20 7 -33 -2 -45 -44 -61
-52 -79 -50 -112 3 -35 3 -35 -37 -32 -155 11 -267 12 -278 4 -7 -5 -25 -12
-41 -16 -52 -13 -129 -73 -166 -128 -45 -69 -53 -149 -21 -201 67 -108 149
-141 408 -159 210 -15 612 7 1043 57 113 13 156 15 199 6 65 -13 84 -28 117
-94 23 -47 52 -77 98 -104 25 -15 149 -17 174 -4 9 6 51 19 92 31 41 11 89 25
106 30 41 13 163 13 221 -1 82 -19 238 -75 258 -91 5 -4 15 -8 23 -8 8 0 43
-14 79 -30 35 -17 70 -30 76 -30 7 0 21 -6 32 -14 11 -7 31 -16 45 -19 14 -3
52 -15 85 -27 214 -78 545 -94 824 -41 104 20 319 102 364 140 20 16 23 50 5
52 -27 3 -53 -4 -72 -17 -11 -8 -30 -14 -41 -14 -12 0 -25 -4 -30 -9 -10 -10
-20 -13 -190 -55 -153 -38 -210 -47 -345 -53 -80 -3 -152 -1 -200 7 -41 7 -97
16 -125 20 -66 10 -178 40 -189 51 -6 5 -18 9 -28 9 -9 0 -32 6 -50 14 -18 8
-58 24 -88 36 -72 28 -87 34 -133 54 -21 9 -42 16 -48 16 -6 0 -25 6 -42 14
-88 39 -220 66 -323 66 -65 0 -166 -15 -199 -30 -64 -28 -171 -52 -216 -48
-58 6 -81 24 -114 90 -27 53 -45 74 -90 104 -26 17 -48 19 -175 19 -80 -1
-172 -6 -205 -13 -57 -12 -132 -19 -415 -43 -69 -6 -233 -9 -365 -6 -311 6
-410 25 -479 94 -31 31 -36 43 -36 81 0 28 8 57 21 79 25 40 104 103 130 103
10 0 20 4 23 9 12 19 132 21 385 7 163 -10 423 -16 681 -16 382 0 423 2 494
20 42 11 82 23 89 27 6 4 34 10 62 15 27 4 70 12 95 17 72 16 128 13 173 -10
62 -30 89 -46 96 -56 15 -23 151 -119 199 -140 62 -27 97 -29 141 -7 24 12 31
22 29 38 -3 18 -9 21 -42 19 -76 -5 -177 42 -257 119 -28 27 -97 78 -105 78
-5 0 -20 6 -34 13 -53 28 -141 27 -270 -1 -147 -33 -164 -34 -219 -18 -30 9
-60 21 -67 27 -8 6 -23 9 -34 6 -17 -4 -25 2 -37 29 -15 30 -15 39 -4 72 16
45 24 52 126 124 46 32 96 78 119 108 43 59 96 160 96 185 0 9 5 26 11 37 12
22 33 107 48 188 20 111 60 238 95 305 14 26 26 52 26 56 0 36 196 269 280
334 86 67 238 155 265 155 7 0 26 7 41 15 16 8 36 15 44 15 8 0 33 6 55 14 63
22 232 30 332 16 49 -7 93 -16 98 -20 6 -4 28 -11 50 -14 76 -14 158 -43 263
-95 34 -17 68 -31 76 -31 8 0 16 -7 20 -15 3 -8 12 -15 20 -15 8 0 16 -3 18
-7 2 -5 22 -21 44 -36 50 -34 112 -100 137 -146 9 -18 17 -52 17 -75 0 -35 -6
-48 -32 -73 -18 -16 -56 -38 -85 -48 -44 -16 -56 -17 -80 -6 -15 7 -50 17 -78
22 -27 6 -62 12 -76 15 -31 7 -89 -20 -89 -41 0 -18 -6 -16 95 -20 50 -2 91
-9 110 -19 46 -24 101 -20 170 14 77 38 107 77 113 149 6 74 -30 143 -120 226
-67 62 -98 82 -238 151 -41 20 -87 43 -102 50 -14 8 -37 14 -50 14 -13 0 -29
5 -35 11 -11 11 -63 25 -149 39 -44 7 -59 16 -102 62 -40 41 -52 60 -52 85 0
29 -11 41 -137 135 -75 57 -143 110 -152 118 -16 15 -227 179 -299 233 -20 15
-89 68 -152 118 -63 49 -191 149 -285 220 -93 72 -187 145 -209 162 -21 18
-46 36 -55 41 -9 5 -18 12 -21 16 -3 4 -34 30 -70 58 -36 29 -69 55 -75 60
-69 55 -181 136 -214 153 -22 11 -41 25 -41 30 0 5 -7 9 -17 9 -9 0 -53 37
-97 83 -85 87 -230 192 -324 235 -49 22 -176 102 -192 121 -6 8 -41 29 -60 38
-8 3 -44 25 -80 47 -36 23 -74 46 -85 53 -11 6 -107 65 -213 130 -106 65 -203
123 -215 130 -12 7 -30 18 -40 25 -10 7 -33 22 -52 33 -93 55 -265 161 -302
186 -23 16 -46 29 -51 29 -5 0 -20 9 -33 19 -29 23 -77 51 -144 87 -27 14 -57
32 -65 39 -26 23 -343 181 -397 198 -74 24 -113 21 -140 -10z m154 -52 c10 -6
70 -35 133 -66 160 -79 182 -91 427 -251 45 -30 84 -54 87 -54 3 0 34 -20 70
-45 37 -25 69 -45 72 -45 3 0 25 -13 48 -28 22 -15 49 -31 59 -35 9 -3 17 -11
17 -17 0 -5 4 -10 9 -10 5 0 38 -19 73 -42 35 -24 71 -47 80 -53 9 -5 49 -30
88 -55 39 -25 79 -50 88 -55 9 -6 36 -23 59 -38 24 -15 44 -27 47 -27 5 0 105
-65 123 -80 7 -6 16 -10 21 -10 5 0 27 -13 48 -28 21 -16 46 -31 54 -35 23
-10 48 -27 118 -79 35 -26 106 -68 157 -94 166 -83 332 -228 394 -345 10 -19
24 -64 31 -100 11 -55 11 -75 0 -113 -14 -50 -4 -76 30 -76 20 0 98 -34 120
-52 22 -19 80 -94 80 -105 0 -5 7 -33 15 -61 14 -47 19 -52 44 -52 42 0 66
-37 92 -145 14 -55 56 -137 82 -158 12 -10 45 -29 72 -44 85 -44 102 -81 68
-146 -11 -22 -17 -57 -17 -112 0 -72 3 -87 33 -145 30 -56 34 -74 34 -140 0
-95 -6 -106 -133 -230 -63 -62 -105 -112 -121 -145 -14 -31 -53 -79 -103 -127
-65 -63 -86 -78 -111 -78 -35 0 -75 -24 -75 -46 0 -22 -36 -84 -77 -133 -50
-59 -70 -76 -123 -104 l-45 -24 -6 -104 c-7 -125 -16 -155 -69 -225 -22 -30
-43 -60 -46 -68 -12 -31 -36 -26 -80 18 -39 39 -98 123 -131 183 -6 12 -19 36
-29 52 -10 17 -16 32 -13 35 2 2 33 -2 69 -9 79 -17 156 -19 199 -4 37 13 41
34 6 43 -18 5 -23 11 -18 24 10 27 43 105 52 122 5 9 12 30 16 49 4 18 13 44
21 59 8 15 14 35 14 44 0 9 5 20 10 23 6 3 10 14 10 24 0 10 7 43 16 72 8 30
18 65 22 79 6 21 16 26 56 32 55 8 61 11 53 33 -4 10 -20 15 -47 15 -43 0 -46
4 -29 47 24 59 62 245 81 396 l12 87 35 10 c20 5 56 14 81 20 25 6 62 16 83
21 47 12 87 37 87 55 0 21 -47 28 -73 12 -12 -8 -40 -18 -62 -22 -22 -4 -59
-14 -83 -23 -23 -9 -45 -13 -49 -9 -3 3 1 68 10 143 10 76 17 188 17 250 l0
112 53 10 c28 6 69 13 90 17 31 5 37 10 37 30 0 29 -21 40 -48 25 -11 -6 -45
-14 -76 -17 l-55 -7 -3 124 c-3 102 -6 124 -18 124 -12 0 -16 -23 -20 -130
l-5 -130 -100 -11 c-55 -6 -120 -15 -144 -19 l-43 -8 6 74 c4 41 11 98 17 128
5 30 9 96 9 147 0 106 1 107 85 118 28 4 61 16 75 26 23 18 24 20 9 36 -15 14
-23 15 -65 4 -27 -6 -61 -14 -75 -17 l-26 -5 4 144 c4 120 2 146 -11 163 -29
37 -37 1 -34 -160 l2 -150 -60 -12 c-57 -12 -247 -34 -309 -37 -28 -1 -30 1
-27 29 2 17 6 92 8 168 5 118 3 142 -11 164 -21 32 -14 37 73 53 66 13 86 31
61 55 -11 11 -26 11 -68 4 -78 -15 -83 -11 -75 61 7 63 -5 94 -32 83 -11 -4
-14 -22 -12 -81 l3 -76 -32 -6 c-17 -4 -93 -10 -170 -14 l-138 -7 0 193 c0
202 -6 248 -30 248 -12 0 -15 -35 -17 -217 l-3 -218 -140 3 c-77 1 -155 5
-174 8 -32 5 -33 6 -26 42 4 20 10 109 13 197 l7 160 95 -3 c52 -1 120 1 150
5 50 7 55 10 55 33 l0 25 -143 1 c-92 1 -152 6 -167 14 -17 9 -28 9 -44 0 -26
-14 -318 -3 -327 12 -7 10 -6 280 1 286 2 2 48 -4 102 -13 237 -40 288 -43
288 -16 0 22 -128 54 -324 82 -36 5 -69 13 -75 19 -5 5 -35 10 -65 10 -30 0
-97 8 -149 17 l-94 18 7 100 c6 103 -1 133 -29 122 -15 -6 -23 -69 -18 -127 1
-8 -1 -32 -4 -54 -6 -38 -6 -38 -45 -33 -49 6 -67 21 -89 72 -9 22 -26 60 -37
85 -11 25 -28 68 -38 95 -10 28 -22 55 -26 60 -13 18 -30 97 -24 112 4 12 15
14 50 10 24 -4 53 -11 62 -16z m129 -469 c6 -4 13 -42 16 -85 l5 -78 -23 22
c-13 13 -24 29 -24 36 0 8 -9 32 -20 54 -12 22 -18 44 -15 49 7 12 45 13 61 2z
m177 -37 c32 -8 75 -15 95 -15 20 0 42 -4 48 -8 6 -4 9 -56 6 -150 l-4 -143
-72 3 c-65 3 -71 1 -71 -17 0 -17 9 -21 58 -26 32 -4 62 -10 67 -15 11 -11
-17 -285 -29 -297 -12 -12 -31 0 -31 18 0 8 -30 76 -66 152 -156 324 -158 328
-129 339 12 5 15 25 15 90 l0 84 28 0 c15 0 54 -7 85 -15z m272 -390 c33 -8
101 -15 150 -15 50 0 96 -4 104 -9 11 -7 12 -25 2 -104 -6 -53 -11 -134 -11
-182 0 -101 -3 -104 -94 -86 -103 21 -221 38 -228 34 -20 -11 -7 -43 20 -49
15 -3 38 -9 52 -14 14 -5 73 -17 133 -26 84 -14 107 -21 107 -34 0 -9 -4 -20
-9 -26 -5 -5 -14 -36 -20 -69 -24 -141 -32 -179 -41 -196 -6 -10 -10 -27 -10
-39 0 -11 -7 -37 -15 -57 -13 -30 -17 -33 -30 -23 -8 7 -15 19 -15 26 0 8 -21
58 -46 112 -45 97 -68 142 -152 305 -44 83 -45 89 -33 120 22 54 43 158 47
242 6 87 9 105 21 105 4 0 35 -7 68 -15z m405 -485 c36 -5 100 -10 144 -10
l78 0 -6 -42 c-3 -24 -12 -101 -20 -173 -17 -160 -21 -169 -55 -161 -14 3 -79
12 -143 20 -175 22 -188 25 -188 47 0 10 7 38 14 61 14 41 31 126 42 213 9 63
11 67 41 61 16 -3 57 -10 93 -16z m615 12 c6 -4 8 -79 5 -206 l-5 -198 -190 0
c-222 1 -207 -10 -181 125 9 45 17 120 19 167 l2 85 105 7 c84 6 198 19 230
27 3 0 10 -3 15 -7z m820 -118 c120 -107 159 -140 174 -148 9 -5 18 -12 21
-16 3 -3 50 -42 105 -85 55 -44 129 -104 165 -134 88 -73 95 -78 175 -141 39
-30 75 -58 80 -62 6 -5 48 -39 95 -76 154 -122 304 -243 345 -277 22 -18 56
-46 75 -61 19 -16 37 -31 40 -34 3 -3 12 -9 21 -15 9 -5 39 -28 67 -50 28 -22
70 -53 92 -68 60 -41 52 -62 -25 -62 -63 -1 -117 -25 -196 -86 -47 -37 -152
-89 -178 -89 -11 0 -35 -6 -53 -14 -18 -8 -62 -22 -98 -31 -36 -10 -84 -24
-108 -31 -23 -8 -50 -14 -58 -14 -8 0 -27 -6 -42 -14 -15 -8 -40 -16 -56 -17
l-30 -4 -1 96 c-1 81 -4 100 -23 126 -12 17 -22 37 -22 45 0 7 -7 24 -16 36
-17 25 -16 47 10 172 12 56 14 82 6 104 -12 35 -58 86 -77 86 -24 0 -99 61
-114 93 -23 46 -41 97 -46 132 -3 17 -11 37 -18 45 -7 8 -21 38 -30 67 -16 49
-19 52 -45 47 -23 -5 -29 -2 -35 15 -4 13 -1 28 6 38 12 13 15 13 29 -4 12
-15 28 -19 84 -18 43 0 71 4 73 12 5 15 -11 25 -72 43 -49 15 -50 17 -53 58
-4 58 -30 58 -34 0 -5 -67 -27 -61 -113 26 -53 55 -81 76 -99 76 -28 0 -51 32
-42 57 9 21 -13 143 -30 170 -34 53 -5 57 51 7z m-1565 -300 c41 -8 121 -19
177 -23 57 -4 107 -11 113 -17 7 -7 6 -24 -4 -55 -8 -24 -24 -89 -36 -144 -25
-115 -38 -156 -55 -170 -6 -5 -12 -32 -12 -60 -1 -51 -25 -125 -41 -125 -5 0
-18 21 -28 47 -10 26 -36 78 -56 117 -20 39 -65 126 -100 194 -35 67 -68 132
-75 144 -10 18 -9 26 2 38 7 8 18 27 24 43 6 15 12 27 13 27 2 0 37 -7 78 -16z
m1183 -24 c-2 -14 -7 -81 -13 -150 -14 -186 -20 -244 -28 -257 -5 -7 -73 -12
-200 -14 l-194 -4 7 64 c4 36 11 76 16 88 5 13 11 73 13 133 3 61 7 114 10
119 3 5 64 12 135 16 71 4 149 13 173 20 62 20 84 16 81 -15z m-611 -25 c93
-1 170 -4 173 -7 3 -3 -2 -43 -10 -89 -8 -46 -20 -130 -26 -187 -8 -75 -16
-105 -26 -109 -13 -5 -255 9 -376 21 -39 4 -43 11 -28 59 19 67 41 166 53 242
11 75 21 89 53 78 11 -4 95 -8 187 -8z m914 -442 c-3 -21 -12 -123 -21 -228
-21 -265 -13 -248 -116 -261 -46 -6 -115 -17 -154 -23 -102 -16 -108 -15 -102
12 42 159 63 267 78 392 7 57 16 94 25 101 8 7 56 15 106 19 49 4 102 11 117
15 14 5 37 9 50 9 21 1 23 -2 17 -36z m-1116 6 c41 -6 128 -13 193 -16 115 -5
119 -6 114 -27 -23 -89 -39 -157 -47 -192 -5 -23 -20 -77 -34 -120 -13 -44
-28 -94 -31 -113 l-7 -34 -64 7 c-35 4 -75 11 -88 16 -25 9 -46 -3 -46 -27 0
-33 -21 0 -99 156 -81 164 -83 169 -69 197 13 24 29 72 54 162 2 7 13 10 26 7
13 -2 57 -10 98 -16z m770 -27 c0 -4 -5 -23 -11 -42 -11 -36 -33 -149 -50
-255 -5 -33 -14 -73 -19 -89 -6 -16 -10 -43 -10 -60 0 -60 2 -59 -220 -54
-111 3 -205 9 -210 14 -4 5 3 43 15 84 52 167 85 300 85 342 0 61 5 63 223 65
108 1 197 -1 197 -5z m-633 -523 c28 -10 28 -7 -10 -114 -14 -38 -29 -69 -33
-68 -9 1 -104 181 -104 196 0 11 108 1 147 -14z m927 13 c3 -4 0 -26 -5 -48
-6 -21 -17 -70 -24 -109 -7 -38 -21 -104 -30 -145 -9 -41 -21 -104 -27 -140
-6 -36 -15 -70 -22 -76 -22 -21 -396 -45 -396 -25 0 5 12 40 26 77 32 85 69
211 98 334 22 91 13 85 156 98 71 7 146 19 167 27 46 17 50 17 57 7z m-724
-43 c30 -5 112 -9 183 -9 76 0 127 -4 127 -10 0 -5 -6 -27 -14 -47 -8 -21 -24
-72 -36 -113 -12 -41 -41 -131 -64 -200 -39 -118 -42 -125 -66 -122 -133 15
-140 15 -140 -2 0 -19 35 -34 97 -43 47 -6 53 -19 28 -63 -23 -41 -19 -70 10
-70 26 0 53 39 64 93 l6 28 203 2 c154 2 202 0 202 -10 0 -6 -4 -14 -9 -17 -5
-3 -12 -22 -16 -42 -3 -20 -10 -44 -14 -53 -5 -9 -19 -50 -32 -91 -13 -41 -26
-79 -30 -85 -4 -5 -10 -27 -14 -48 -4 -20 -11 -40 -16 -43 -5 -3 -9 -25 -9
-49 0 -55 -14 -61 -123 -46 -45 6 -95 12 -111 14 -31 2 -14 -28 -313 557 -58
113 -109 209 -114 215 -14 15 -11 43 11 83 26 49 47 100 55 137 10 44 24 57
54 50 14 -4 51 -11 81 -16z m85 -1289 c3 -5 0 -11 -7 -11 -7 -1 -24 -3 -38 -5
-37 -5 -110 6 -110 17 0 12 147 12 155 -1z m-181 -29 c3 -5 -1 -12 -10 -15
-22 -9 -24 -8 -24 9 0 16 25 21 34 6z m1106 -446 c31 -16 33 -19 15 -26 -27
-10 -105 -10 -130 1 -11 5 -15 9 -8 9 6 1 21 17 34 37 22 36 22 36 38 16 9
-11 32 -28 51 -37z"/>
<path d="M3977 4203 c-3 -109 -10 -218 -16 -243 -6 -25 -15 -76 -20 -115 -9
-68 -24 -143 -54 -272 -15 -65 -14 -73 13 -73 10 0 21 17 32 53 48 150 59 207
78 387 26 239 32 320 28 385 -3 67 -4 70 -29 73 l-26 3 -6 -198z"/>
<path d="M4335 4579 c-6 -19 -11 -21 -54 -14 -69 12 -144 12 -148 -1 -4 -12
100 -42 162 -46 l40 -3 -1 -85 c0 -47 -6 -101 -12 -120 -6 -19 -12 -66 -14
-105 -2 -58 0 -70 13 -73 21 -4 40 97 48 262 l6 120 93 3 c96 4 157 23 149 46
-4 11 -26 12 -192 7 -25 0 -44 5 -51 15 -16 21 -31 19 -39 -6z"/>
<path d="M4776 4358 c-3 -7 -9 -71 -15 -143 -13 -160 -12 -160 -137 -163 -158
-4 -284 -14 -290 -24 -19 -30 121 -45 272 -28 106 11 108 11 124 -10 l16 -22
17 26 c10 14 30 29 45 32 54 13 69 41 25 46 -30 3 -30 -1 -12 97 5 30 9 86 7
125 -3 65 -5 71 -26 74 -12 2 -24 -3 -26 -10z"/>
<path d="M6230 3485 c0 -8 24 -60 35 -75 10 -14 27 -65 60 -180 14 -48 31
-131 46 -220 14 -85 55 -221 83 -275 9 -16 16 -36 16 -42 0 -7 5 -13 10 -13 6
0 10 -7 10 -15 0 -27 131 -148 193 -179 71 -35 133 -94 142 -135 8 -38 -16
-90 -53 -117 -69 -51 -155 -61 -287 -35 -107 20 -208 12 -277 -23 -31 -16 -70
-41 -85 -55 -36 -34 -99 -81 -143 -106 -52 -30 -195 -27 -267 5 -29 13 -53 27
-53 32 0 4 -13 8 -30 8 -62 0 -25 -57 68 -104 56 -29 137 -39 211 -26 85 14
117 30 226 116 51 40 108 76 131 82 51 15 128 15 174 2 19 -6 87 -11 150 -11
97 -1 122 2 163 20 26 12 47 26 47 31 0 15 57 12 63 -3 7 -19 113 -68 192 -88
78 -21 270 -25 342 -9 39 9 90 16 300 41 177 21 303 -40 279 -134 -9 -38 -63
-84 -121 -103 -67 -22 -148 -32 -415 -49 -355 -24 -532 -52 -645 -105 -11 -5
-42 -19 -70 -31 -69 -30 -175 -109 -175 -130 0 -32 20 -31 69 4 41 30 154 88
226 117 43 18 114 33 212 45 55 7 105 15 110 18 4 3 89 8 188 12 224 8 466 31
524 51 66 22 136 78 160 127 35 73 24 123 -41 183 -55 52 -111 66 -254 65 -69
0 -130 -4 -136 -7 -6 -4 -27 -8 -47 -10 -20 -1 -79 -8 -131 -15 -112 -15 -286
-16 -350 -2 -64 14 -184 70 -198 93 -8 14 -9 27 -2 45 28 74 -19 166 -115 225
-188 116 -227 156 -274 283 -12 34 -26 69 -31 77 -4 9 -11 39 -15 68 -4 29
-11 54 -16 58 -5 3 -9 22 -9 43 0 20 -6 60 -14 87 -8 27 -17 70 -21 96 -3 26
-10 50 -16 53 -5 4 -9 19 -9 34 0 15 -7 36 -15 47 -8 10 -15 26 -15 34 0 9 -8
23 -17 32 -10 9 -27 28 -38 42 -17 22 -45 35 -45 21z"/>
<path d="M3680 3042 c-25 -30 -55 -64 -68 -76 -26 -23 -58 -84 -49 -93 11 -10
127 118 149 163 30 65 18 68 -32 6z"/>
<path d="M4732 2581 c-26 -16 -9 -46 28 -49 19 -2 49 -9 67 -17 17 -8 34 -15
38 -15 4 0 58 -38 120 -85 151 -114 212 -145 291 -145 73 0 106 15 194 86 91
73 137 90 198 74 45 -12 110 -38 161 -63 13 -7 58 -12 100 -12 73 0 78 1 114
35 21 19 45 50 53 68 12 29 11 37 -3 67 -17 35 -27 40 -57 29 -11 -4 -16 -19
-16 -45 0 -103 -128 -120 -275 -37 -11 6 -55 14 -97 16 -81 5 -129 -11 -176
-55 -136 -130 -216 -136 -372 -29 -25 16 -56 40 -70 52 -40 34 -122 88 -160
106 -44 20 -121 31 -138 19z"/>
<path d="M3770 2549 c-12 -21 -6 -83 10 -109 12 -20 18 -11 29 41 5 24 13 54
16 67 6 19 4 22 -18 22 -16 0 -31 -8 -37 -21z"/>
<path d="M1595 2181 c-101 -25 -200 -98 -211 -157 -18 -99 135 -185 331 -185
95 -1 132 5 174 27 14 8 31 14 37 14 19 0 83 72 89 101 15 65 -26 131 -89 145
-16 3 -36 13 -44 20 -7 8 -22 14 -31 14 -10 0 -35 7 -54 15 -38 16 -148 19
-202 6z m182 -60 c184 -44 239 -108 150 -175 -111 -84 -487 -30 -487 69 0 42
62 82 165 106 92 22 83 22 172 0z"/>
<path d="M4181 1853 c19 -25 32 -33 41 -27 5 3 -2 14 -16 25 -30 24 -43 25
-25 2z"/>
<path d="M6582 1818 c-19 -19 -14 -30 8 -18 11 6 20 15 20 20 0 14 -14 12 -28
-2z"/>
<path d="M5600 1680 c0 -5 6 -10 14 -10 8 0 18 5 21 10 3 6 -3 10 -14 10 -12
0 -21 -4 -21 -10z"/>
<path d="M3705 1643 c-164 -42 -265 -129 -265 -227 0 -39 4 -49 35 -73 68 -54
200 -78 284 -52 146 46 231 123 231 208 0 64 -32 107 -84 115 -22 4 -45 11
-51 16 -13 10 -123 21 -150 13z m139 -65 c106 -22 126 -79 53 -151 -35 -35
-53 -45 -107 -56 -107 -23 -163 -24 -216 -6 -63 21 -74 31 -74 67 0 21 11 41
38 67 78 80 177 105 306 79z"/>
<path d="M6790 1520 c-73 -13 -112 -26 -165 -53 -27 -15 -62 -31 -77 -36 -35
-13 -62 -54 -54 -84 9 -38 67 -87 146 -125 73 -35 78 -36 195 -36 120 -1 120
-1 176 34 72 44 92 72 97 135 4 50 2 54 -36 92 -62 61 -180 92 -282 73z m195
-80 c30 -14 47 -30 54 -51 17 -49 -4 -81 -79 -120 -35 -19 -53 -21 -138 -17
-53 2 -106 9 -117 15 -11 6 -46 22 -78 37 -32 14 -60 33 -64 42 -14 36 94 94
217 118 52 10 162 -3 205 -24z"/>
<path d="M3007 1471 c-17 -11 -57 -20 -105 -24 -81 -6 -250 -40 -280 -56 -9
-6 -39 -20 -65 -33 -131 -61 -163 -189 -70 -282 41 -41 108 -76 145 -76 13 0
29 -5 35 -11 12 -12 123 -7 196 10 89 20 237 108 310 183 53 55 87 118 87 160
0 101 -166 185 -253 129z m156 -93 c46 -54 -2 -128 -147 -226 -111 -74 -190
-102 -292 -102 -101 0 -179 33 -217 92 -36 57 -15 109 64 158 51 31 64 35 209
69 88 20 296 41 340 34 14 -2 33 -13 43 -25z"/>
</g>
</svg>
