<?xml version="1.0" standalone="no"?>
<!DOCTYPE svg PUBLIC "-//W3C//DTD SVG 20010904//EN"
 "http://www.w3.org/TR/2001/REC-SVG-20010904/DTD/svg10.dtd">
<svg version="1.0" xmlns="http://www.w3.org/2000/svg"
 width="48.000000pt" height="48.000000pt" viewBox="0 0 300.000000 300.000000"
 preserveAspectRatio="xMidYMid meet">
<metadata>
Created by potrace 1.10, written by Peter Selinger 2001-2011
</metadata>
<g transform="translate(0.000000,300.000000) scale(0.050000,-0.050000)"
fill="#000000" stroke="none">
<path d="M2740 5729 c-27 -5 -112 -19 -188 -31 -734 -120 -1436 -709 -1672
-1404 -415 -1223 107 -2362 1783 -3888 160 -146 303 -266 316 -266 96 0 1125
1033 1474 1480 1156 1480 982 3093 -415 3857 -354 193 -958 310 -1298 252z
m416 -390 c671 -73 1178 -413 1463 -982 422 -842 191 -1732 -721 -2780 -240
-275 -883 -917 -919 -917 -37 0 -658 628 -900 910 -149 173 -277 339 -449 580
-530 744 -637 1526 -298 2197 276 550 767 898 1381 982 256 35 220 34 443 10z"/>
<path d="M2370 4125 c-143 -47 -296 -205 -338 -346 -104 -348 116 -696 843
-1334 l125 -110 75 66 c754 652 997 1021 898 1362 -108 372 -639 518 -895 245
-58 -62 -88 -61 -169 10 -144 126 -353 168 -539 107z m433 -312 c172 -90 223
-91 381 -4 208 114 380 114 503 -1 93 -87 75 -356 -36 -521 -112 -166 -586
-627 -645 -627 -86 0 -537 433 -678 651 -265 411 37 730 475 502z"/>
</g>
</svg>
