<?xml version="1.0" standalone="no"?>
<!DOCTYPE svg PUBLIC "-//W3C//DTD SVG 20010904//EN"
 "http://www.w3.org/TR/2001/REC-SVG-20010904/DTD/svg10.dtd">
<svg version="1.0" xmlns="http://www.w3.org/2000/svg"
 width="900.000000pt" height="900.000000pt" viewBox="0 0 900.000000 900.000000"
 preserveAspectRatio="xMidYMid meet">
<metadata>
Created by potrace 1.10, written by Peter Selinger 2001-2011
</metadata>
<g transform="translate(0.000000,900.000000) scale(0.100000,-0.100000)"
fill="#000000" stroke="none">
<path d="M4185 8594 c-33 -8 -107 -18 -165 -23 -111 -9 -196 -23 -270 -47 -25
-8 -53 -14 -64 -14 -26 0 -158 -30 -178 -41 -10 -5 -34 -13 -55 -18 -53 -14
-192 -60 -228 -76 -16 -7 -64 -28 -105 -45 -117 -51 -238 -112 -323 -163 -42
-26 -79 -47 -81 -47 -10 0 -196 -127 -288 -196 -230 -174 -433 -360 -567 -519
-78 -94 -221 -281 -221 -289 0 -4 -12 -25 -27 -49 -38 -59 -51 -80 -59 -97 -4
-8 -19 -33 -33 -55 -50 -80 -181 -361 -181 -389 0 -5 -13 -43 -29 -85 -29 -73
-57 -167 -81 -261 -6 -25 -18 -70 -25 -100 -38 -148 -73 -385 -79 -537 -3 -67
-11 -143 -17 -170 -16 -73 -13 -344 5 -428 9 -38 16 -92 16 -120 0 -46 19
-157 54 -325 15 -71 46 -187 71 -265 9 -27 20 -63 25 -80 5 -16 22 -66 39
-110 16 -44 41 -111 55 -150 29 -77 31 -82 104 -235 106 -222 146 -300 194
-375 29 -47 69 -115 98 -167 11 -20 33 -57 50 -81 16 -25 30 -48 30 -51 0 -5
101 -155 206 -306 77 -110 296 -390 406 -520 17 -19 74 -86 127 -149 53 -63
125 -146 161 -185 36 -39 103 -114 150 -166 196 -218 534 -561 741 -751 57
-52 160 -147 227 -210 135 -124 167 -153 287 -255 74 -64 145 -127 185 -164
33 -32 86 -68 105 -72 30 -7 72 18 150 86 39 33 72 63 75 66 6 6 161 142 199
175 13 11 31 27 40 36 9 8 61 55 116 104 129 115 444 415 605 575 199 200 565
593 675 725 27 33 80 94 117 135 88 99 389 491 496 647 74 107 238 362 257
399 11 21 46 84 79 139 130 223 341 685 386 850 8 30 17 57 40 125 7 19 18 60
25 90 8 30 25 102 40 160 31 129 40 176 57 310 17 138 17 609 0 755 -22 182
-69 443 -91 498 -6 16 -11 40 -11 55 0 29 -1 34 -79 272 -55 169 -63 191 -121
316 -22 46 -40 86 -40 88 0 4 -143 243 -173 290 -6 11 -59 83 -117 160 -185
249 -468 519 -740 706 -28 19 -78 54 -110 77 -32 23 -76 51 -97 62 -21 12 -45
25 -53 30 -56 35 -171 101 -175 101 -3 0 -61 27 -131 60 -69 33 -134 60 -144
60 -10 0 -23 6 -29 14 -6 7 -26 16 -44 20 -17 3 -61 17 -97 30 -36 13 -85 29
-110 35 -25 6 -76 20 -115 30 -38 10 -106 26 -150 35 -44 9 -109 23 -145 31
-36 8 -99 15 -140 15 -42 0 -107 9 -147 20 -61 16 -107 19 -285 19 -151 -1
-230 -5 -273 -15z m530 -594 c185 -16 300 -32 358 -51 31 -11 67 -19 80 -19
12 0 47 -7 77 -16 30 -9 80 -22 110 -30 30 -8 64 -19 75 -24 11 -5 31 -12 45
-16 68 -18 309 -137 433 -213 59 -36 116 -71 127 -77 11 -6 33 -21 50 -35 16
-13 60 -46 98 -74 119 -88 408 -388 530 -550 40 -54 98 -140 105 -155 8 -18
25 -44 53 -85 11 -16 45 -79 74 -140 29 -60 59 -122 66 -137 8 -14 14 -33 14
-41 0 -9 8 -30 17 -49 31 -62 39 -83 58 -143 10 -33 23 -76 31 -95 13 -37 50
-184 64 -260 5 -25 9 -73 9 -107 1 -34 9 -84 18 -110 15 -41 18 -90 18 -348 0
-242 -3 -305 -14 -325 -8 -14 -18 -66 -22 -116 -3 -50 -16 -120 -27 -155 -11
-35 -30 -98 -41 -139 -42 -144 -55 -185 -67 -210 -7 -14 -26 -61 -44 -105 -79
-198 -169 -378 -311 -625 -115 -199 -99 -172 -209 -339 -52 -79 -99 -151 -105
-160 -5 -8 -37 -51 -70 -95 -33 -43 -73 -98 -90 -121 -16 -24 -52 -71 -80
-106 -27 -34 -68 -85 -90 -113 -273 -351 -960 -1074 -1492 -1569 -51 -47 -80
-67 -98 -67 -20 0 -69 40 -213 179 -219 209 -569 557 -661 656 -36 39 -110
117 -165 175 -141 146 -208 221 -270 298 -29 37 -64 78 -78 92 -13 14 -51 59
-83 100 -33 41 -77 94 -98 116 -20 23 -48 55 -60 72 -36 50 -154 205 -180 237
-13 17 -45 62 -72 100 -26 39 -68 96 -92 127 -23 31 -43 59 -43 63 0 4 -19 32
-43 63 -52 68 -167 259 -167 278 0 7 -4 16 -10 19 -12 7 -106 160 -150 245
-47 88 -140 291 -140 304 0 7 -7 19 -15 26 -8 7 -15 18 -15 25 0 7 -11 38 -26
70 -28 65 -53 139 -79 235 -10 36 -23 83 -30 105 -12 37 -26 101 -55 245 -32
162 -35 699 -4 821 8 31 14 73 14 94 0 38 10 84 55 260 45 173 65 233 139 400
89 203 236 451 298 504 10 8 18 19 18 24 0 5 29 46 65 92 87 112 320 343 430
427 49 37 103 78 118 91 58 45 255 160 367 213 63 31 126 61 140 69 14 7 43
18 65 25 22 7 54 18 70 26 17 7 55 19 85 27 30 8 80 21 110 30 30 8 78 18 105
22 28 4 59 12 70 18 11 5 57 14 103 18 45 4 104 12 130 18 127 28 362 33 617
11z"/>
<path d="M3755 6225 c-5 -1 -44 -9 -85 -16 -69 -12 -199 -57 -260 -91 -111
-61 -236 -180 -293 -278 -84 -146 -134 -327 -123 -453 9 -103 45 -247 84 -337
39 -91 63 -144 72 -160 63 -106 103 -171 118 -189 9 -12 31 -39 47 -61 67 -90
151 -189 220 -260 100 -103 299 -296 360 -349 28 -25 106 -97 175 -161 69 -64
177 -163 240 -220 63 -58 121 -111 128 -117 30 -29 53 -35 75 -20 24 16 236
205 337 301 36 34 139 129 230 211 272 248 437 420 570 594 38 50 109 151 125
179 6 9 21 35 35 57 28 43 90 170 90 182 0 5 6 19 13 33 18 35 43 130 63 233
20 112 8 233 -40 377 -59 182 -225 367 -407 453 -228 108 -423 119 -640 36
-42 -16 -79 -29 -83 -29 -3 0 -39 -20 -79 -44 -70 -43 -93 -60 -177 -133 -51
-45 -80 -43 -138 10 -75 68 -122 102 -192 137 -36 18 -73 37 -84 42 -89 46
-323 91 -381 73z"/>
</g>
</svg>
