<?xml version="1.0" standalone="no"?>
<!DOCTYPE svg PUBLIC "-//W3C//DTD SVG 20010904//EN"
 "http://www.w3.org/TR/2001/REC-SVG-20010904/DTD/svg10.dtd">
<svg version="1.0" xmlns="http://www.w3.org/2000/svg"
 width="300.000000pt" height="112.000000pt" viewBox="0 0 300.000000 112.000000"
 preserveAspectRatio="xMidYMid meet">
<metadata>
Created by potrace 1.10, written by Peter Selinger 2001-2011
</metadata>
<g transform="translate(0.000000,112.000000) scale(0.050000,-0.050000)"
fill="#ffffff" stroke="none">
<path d="M188 1691 c-221 -96 -158 -325 131 -482 119 -65 123 -79 35 -116
-146 -61 -206 -185 -121 -252 115 -90 327 29 327 185 0 36 16 56 59 73 79 33
101 14 101 -86 0 -180 97 -221 208 -88 71 85 71 85 72 29 1 -203 134 -225 228
-39 18 36 47 65 64 65 16 0 58 15 93 33 45 23 65 26 71 9 46 -138 195 -181
305 -88 43 36 71 47 88 35 151 -112 194 -111 302 6 73 80 68 84 110 -85 14
-55 33 -116 43 -136 22 -43 62 -24 47 23 -16 51 -32 558 -19 592 22 57 153 39
218 -29 32 -34 106 -88 164 -121 125 -70 129 -86 35 -131 -138 -66 -192 -196
-105 -257 115 -80 336 62 336 216 0 33 44 64 108 76 33 6 43 -13 65 -132 29
-157 113 -277 138 -200 35 108 59 157 112 230 85 118 111 105 101 -51 -16
-247 91 -245 215 2 52 105 81 112 81 21 0 -136 138 -179 228 -71 29 33 52 68
52 76 0 12 126 82 148 82 3 0 12 -70 19 -156 30 -352 115 -458 133 -164 12
181 94 374 180 420 70 37 65 -18 -7 -86 -88 -83 -109 -157 -64 -225 66 -101
196 0 224 175 9 58 23 79 58 88 72 18 89 -5 89 -124 0 -153 41 -384 72 -410
49 -40 68 4 68 154 0 164 59 322 151 409 87 81 95 20 10 -72 -88 -96 -106
-181 -50 -238 80 -80 209 42 209 198 0 46 48 91 96 91 10 0 25 -37 32 -81 25
-160 185 -229 320 -140 63 41 172 190 172 234 0 57 -52 23 -98 -64 -73 -136
-184 -184 -252 -109 -34 38 -34 40 2 51 117 38 153 60 192 114 127 179 -130
283 -274 111 -66 -78 -177 -98 -209 -38 -38 71 -126 55 -206 -38 -89 -104 -95
-102 -95 36 0 156 -41 216 -100 147 -22 -26 -40 -69 -40 -95 0 -84 -141 -122
-180 -48 -38 70 -128 52 -202 -40 -87 -107 -98 -102 -98 48 0 203 -104 235
-133 41 -21 -137 -147 -232 -147 -111 0 90 -88 182 -173 182 -80 0 -167 -73
-167 -141 0 -50 -117 -279 -143 -279 -9 0 -17 57 -17 128 0 208 -74 224 -227
49 l-88 -100 -10 54 c-9 46 8 71 105 166 183 179 203 337 51 406 -117 53 -222
-57 -271 -283 l-33 -150 -83 -18 c-77 -16 -87 -13 -138 41 -31 33 -99 80 -151
105 -147 70 -222 150 -206 217 33 129 185 136 233 11 24 -64 58 -58 58 11 0
182 -275 199 -353 21 -29 -64 -45 -78 -91 -78 -58 0 -63 6 -85 106 -18 80 -57
57 -82 -46 -17 -68 -33 -91 -72 -101 -82 -22 -134 -57 -147 -99 -7 -22 -24
-40 -38 -40 -42 0 -90 -67 -121 -169 -48 -161 -176 -258 -247 -187 -42 42 -26
90 38 117 111 46 160 157 98 219 -85 85 -206 27 -290 -139 -44 -89 -81 -121
-134 -121 -13 0 -17 35 -11 94 13 110 -7 175 -63 205 -96 51 -137 -124 -62
-265 43 -80 36 -116 -38 -201 -30 -35 -33 -28 -42 120 -14 213 -58 225 -168
48 -94 -153 -110 -142 -97 66 12 194 -20 239 -95 133 -65 -91 -166 -101 -246
-25 -35 34 -101 79 -146 102 -202 101 -267 223 -158 295 67 44 132 24 176 -55
48 -85 93 -50 54 43 -42 101 -130 136 -232 91z m3240 -163 c70 -27 26 -191
-76 -287 -74 -69 -94 -37 -72 116 23 167 57 206 148 171z m-1212 -263 c14
-145 -118 -336 -222 -321 -88 12 -68 119 31 166 84 39 85 42 82 136 -5 124 97
142 109 19z m-960 -64 c5 -62 0 -83 -19 -77 -30 10 -59 108 -43 149 21 54 56
14 62 -72z m472 47 c14 -37 -88 -148 -136 -148 -45 0 -40 65 9 127 47 59 108
69 127 21z m349 -15 c8 -45 -51 -113 -100 -113 -48 0 -49 73 -3 124 40 45 93
39 103 -11z m3663 -14 c0 -43 -90 -119 -143 -119 -43 0 -46 19 -15 87 40 87
158 111 158 32z m-1701 2 c46 -86 27 -141 -49 -141 -80 0 -96 54 -39 136 38
54 61 56 88 5z m581 -197 c0 -74 -49 -142 -80 -112 -17 17 -15 41 8 95 36 87
72 95 72 17z m620 17 c0 -59 -43 -141 -73 -141 -37 0 -34 81 4 136 39 54 69
57 69 5z m-4780 -32 c0 -104 -180 -204 -213 -118 -16 41 65 125 142 148 34 9
63 18 66 19 3 1 5 -21 5 -49z m2420 -2 c0 -51 -115 -151 -165 -143 -84 12 -59
99 43 150 91 47 122 45 122 -7z m1116 -22 c-4 -19 -24 -35 -46 -35 -22 0 -42
16 -46 35 -5 26 6 35 46 35 40 0 51 -9 46 -35z"/>
</g>
</svg>
