<?xml version="1.0" standalone="no"?>
<!DOCTYPE svg PUBLIC "-//W3C//DTD SVG 20010904//EN"
 "http://www.w3.org/TR/2001/REC-SVG-20010904/DTD/svg10.dtd">
<svg version="1.0" xmlns="http://www.w3.org/2000/svg"
 width="480.000000pt" height="480.000000pt" viewBox="0 0 480.000000 480.000000"
 preserveAspectRatio="xMidYMid meet">
<metadata>
Created by potrace 1.10, written by Peter Selinger 2001-2011
</metadata>
<g transform="translate(0.000000,480.000000) scale(0.100000,-0.100000)"
fill="#000000" stroke="none">
<path d="M2118 4605 c-3 -4 -44 -10 -90 -15 -356 -37 -692 -197 -976 -465
-166 -156 -287 -334 -367 -537 -52 -135 -101 -326 -110 -430 -3 -40 -10 -118
-16 -173 -28 -279 94 -726 286 -1041 25 -41 45 -77 45 -80 0 -11 192 -287 249
-359 122 -154 304 -359 506 -569 176 -184 560 -525 590 -526 22 0 257 203 449
390 236 227 483 493 596 640 19 25 37 47 40 50 3 3 37 48 76 100 240 326 408
667 483 980 33 141 44 307 31 460 -18 222 -77 465 -152 630 -137 305 -430 597
-768 767 -227 114 -443 166 -745 179 -66 3 -123 3 -127 -1z m317 -54 c155 -20
326 -65 443 -115 272 -117 542 -330 704 -557 125 -174 200 -352 255 -608 25
-117 27 -144 28 -361 0 -225 -1 -240 -28 -342 -90 -348 -240 -645 -511 -1003
-228 -302 -562 -652 -954 -997 -67 -60 -128 -108 -136 -108 -27 0 -329 272
-561 504 -482 483 -791 914 -952 1325 -94 239 -141 512 -123 708 24 257 51
392 107 541 90 242 250 466 444 623 296 240 508 332 924 398 68 10 254 7 360
-8z"/>
<path d="M1998 4335 c-383 -67 -673 -243 -911 -552 -189 -247 -288 -577 -274
-917 8 -209 57 -395 159 -601 186 -380 463 -739 938 -1218 272 -274 287 -287
323 -287 34 0 49 12 190 144 251 235 553 566 725 794 221 292 384 594 459 851
124 426 24 920 -258 1271 -219 272 -463 425 -804 502 -117 26 -430 34 -547 13z
m466 -41 c128 -22 168 -31 237 -55 99 -33 254 -114 340 -176 83 -59 231 -203
298 -290 119 -152 222 -382 250 -553 5 -36 15 -95 21 -131 43 -276 -33 -609
-215 -939 -76 -137 -229 -379 -254 -400 -3 -3 -19 -23 -36 -45 -40 -56 -218
-267 -289 -345 -182 -200 -563 -572 -580 -568 -18 4 -329 307 -482 469 -354
374 -623 749 -773 1077 -84 186 -120 333 -128 530 -17 415 121 767 413 1057
102 101 211 179 339 243 146 72 213 93 400 127 95 17 360 16 459 -1z"/>
<path d="M1845 3410 c-175 -37 -288 -143 -331 -310 -25 -98 -6 -198 61 -335
72 -144 190 -276 512 -569 l163 -148 215 197 c118 108 245 230 282 272 131
145 209 280 239 411 29 131 -10 265 -108 363 -162 162 -411 162 -591 0 l-38
-34 -32 30 c-100 94 -260 147 -372 123z m220 -73 c32 -15 82 -46 111 -67 28
-22 60 -40 70 -40 11 0 54 24 97 54 97 67 175 91 277 84 130 -10 242 -86 302
-206 20 -40 23 -62 23 -152 0 -95 -3 -112 -31 -175 -39 -91 -115 -202 -200
-294 -79 -85 -452 -431 -465 -431 -9 0 -234 204 -372 339 -199 193 -297 346
-327 509 -19 109 12 212 93 299 73 79 160 113 277 110 69 -2 96 -8 145 -30z"/>
</g>
</svg>
